<?xml version="1.0" encoding="UTF-8"?>
<svg id="Layer_1" data-name="Layer 1" xmlns="http://www.w3.org/2000/svg" viewBox="0 0 100 100">
  <defs>
    <style>
      .cls-1 {
        fill: #333;
      }

      .cls-2 {
        fill: #8cb0d5;
      }
    </style>
  </defs>
  <circle class="cls-1" cx="49.83" cy="49.83" r="49.83"/>
  <polygon class="cls-2" points="50.85 11.57 50.38 12.2 51.14 12.19 50.85 11.57"/>
  <polygon class="cls-2" points="48.9 14.15 52.1 14.15 52.36 14.7 48.49 14.7 48.9 14.15"/>
  <polygon class="cls-2" points="47.25 16.34 53.16 16.34 53.95 17.99 45.96 18.07 47.25 16.34"/>
  <polygon class="cls-2" points="44.38 20.15 55.01 20.15 56.02 22.21 42.82 22.21 44.38 20.15"/>
  <polygon class="cls-2" points="40.93 24.73 57.22 24.73 58.48 27.33 38.98 27.33 40.93 24.73"/>
  <polygon class="cls-2" points="36.98 29.92 59.74 29.92 61.72 34.02 33.93 34.02 36.98 29.92"/>
  <polygon class="cls-2" points="31.65 37.03 63.21 37.03 65.18 41.13 28.59 41.13 31.65 37.03"/>
  <polygon class="cls-2" points="67.06 44.96 25.67 44.96 21.26 50.84 69.9 50.84 67.06 44.96"/>
  <polygon class="cls-2" points="17.67 55.63 72.2 55.63 69.38 61.19 22.07 60.66 17.67 55.63"/>
  <path class="cls-2" d="M42.21,64.56h25.44l-2.54,5.02h-17.18s-2.86-3.21-5.72-5.02Z"/>
  <path class="cls-2" d="M50.26,73h13.1l-1.87,3.69h-9.43s-.78-1.94-1.8-3.69Z"/>
  <path class="cls-2" d="M53.21,80.03h6.55l-1.56,3.15h-4.23s-.22-1.49-.75-3.15Z"/>
  <path class="cls-2" d="M54.3,85.05h2.91l-.9,1.78h-1.76s-.04-.47-.25-1.78Z"/>
</svg>